<?xml version="1.0" standalone="no"?>
<!DOCTYPE svg PUBLIC "-//W3C//DTD SVG 20010904//EN"
 "http://www.w3.org/TR/2001/REC-SVG-20010904/DTD/svg10.dtd">
<svg version="1.0" xmlns="http://www.w3.org/2000/svg"
 width="500.000000pt" height="500.000000pt" viewBox="0 0 500.000000 500.000000"
 preserveAspectRatio="xMidYMid meet">
<metadata>
Created by potrace 1.14, written by Peter Selinger 2001-2017
</metadata>
<g transform="translate(0.000000,500.000000) scale(0.100000,-0.100000)"
fill="#000000" stroke="none">
<path d="M2476 3791 c-49 -25 -93 -53 -97 -61 -23 -40 -182 -442 -535 -1347
-134 -343 -199 -498 -225 -535 -10 -14 -19 -30 -19 -36 0 -16 -89 -93 -126
-108 -19 -8 -59 -16 -89 -17 -30 -2 -60 -8 -66 -14 -14 -14 -8 -79 7 -76 32 6
252 17 344 17 82 0 309 -10 348 -15 4 -1 17 -1 30 0 21 1 22 4 16 39 -8 47 -7
45 -52 47 -123 5 -163 33 -170 119 -2 30 1 78 8 108 11 47 76 232 115 328 7
19 28 76 45 125 18 50 35 97 40 105 4 9 11 30 15 48 l7 32 378 0 378 0 30 -87
c17 -49 47 -133 67 -188 104 -280 136 -383 136 -443 1 -107 -31 -137 -150
-145 -37 -2 -56 -8 -63 -20 -12 -22 -7 -73 7 -70 95 16 485 21 683 9 l132 -8
0 24 c0 44 -22 61 -84 65 -120 7 -185 60 -256 208 -55 116 -72 162 -341 910
-111 308 -214 596 -231 640 -16 44 -31 87 -33 95 -2 8 -17 51 -34 95 -16 44
-40 108 -52 143 -29 78 -40 79 -163 13z m89 -536 c59 -160 129 -349 156 -421
27 -72 49 -133 49 -135 0 -2 -142 -4 -315 -4 -230 0 -315 3 -315 11 0 7 13 45
30 85 16 41 30 78 30 82 0 5 6 23 14 40 8 18 65 168 127 335 62 166 113 301
115 299 2 -1 51 -133 109 -292z"/>
</g>
</svg>
