<svg version="1.2" xmlns="http://www.w3.org/2000/svg" viewBox="0 0 900 140" width="900" height="140">
	<title>wave-haikei-svg</title>
	<style>
		.s0 { fill: #1f1f1f } 
	</style>
	<path id="Layer" class="s0" d="m0 0h18.8c18.9 0 56.5 0 94 0 37.5 0 74.9 0 112.4 0 37.5 0 75.1 0 112.6 0 37.5 0 74.9 0 112.4 0 37.5 0 75.1 0 112.6 0 37.5 0 74.9 0 112.4 0 37.5 0 75.1 0 112.6 0 37.5 0 74.9 0 93.5 0h18.7v84l-18.7 14.2c-18.6 14.1-56 42.5-93.5 40.1-37.5-2.3-75.1-35.3-112.6-44.5-37.5-9.1-74.9 5.5-112.4 12.9-37.5 7.3-75.1 7.3-112.6-0.4-37.5-7.6-74.9-23-112.4-31.3-37.5-8.3-75.1-9.7-112.6-1.3-37.5 8.3-74.9 26.3-112.4 38.1-37.5 11.9-75.1 17.5-94 20.4l-18.8 2.8z"/>
</svg>