<svg version="1.2" xmlns="http://www.w3.org/2000/svg" viewBox="0 0 900 119" width="900" height="119">
	<title>wave-haikei-2-svg</title>
	<style>
		.s0 { fill: #1f1f1f } 
	</style>
	<path id="Layer" class="s0" d="m0 0h12.5c12.5 0 37.5 0 62.5 0q37.5 0 75 0 37.5 0 75 0 37.5 0 75 0 37.5 0 75 0 37.5 0 75 0 37.5 0 75 0 37.5 0 75 0 37.5 0 75 0 37.5 0 75 0 37.5 0 75 0c25 0 50 0 62.5 0h12.5v112l-12.5-5.5c-12.5-5.5-37.5-16.5-62.5-19.5-25-3-50 2-75 4.5-25 2.5-50 2.5-75-5.3-25-7.9-50-23.5-75-19.2-25 4.3-50 28.7-75 40-25 11.3-50 9.7-75 1-25-8.7-50-24.3-75-23-25 1.3-50 19.7-75 18-25-1.7-50-23.3-75-36-25-12.7-50-16.3-75-14.8-25 1.5-50 8.1-75 8.3-25 0.2-50-6.2-62.5-9.3l-12.5-3.2z"/>
</svg>