<svg version="1.2" xmlns="http://www.w3.org/2000/svg" viewBox="0 0 900 122" width="900" height="122">
	<title>wave-haikei-3-svg</title>
	<style>
		.s0 { fill: #1f1f1f } 
	</style>
	<path id="Layer" class="s0" d="m0 12l18.8 12.2c18.9 12.1 56.5 36.5 94 34.8 37.5-1.7 74.9-29.3 112.4-31.2 37.5-1.8 75.1 22.2 112.6 21.2 37.5-1 74.9-27 112.4-38.2 37.5-11.1 75.1-7.5 112.6 3.5 37.5 11 74.9 29.4 112.4 27.4 37.5-2 75.1-24.4 112.6-31.9 37.5-7.5 74.9-0.1 93.5 3.5l18.7 3.7v106h-18.7c-18.6 0-56 0-93.5 0-37.5 0-75.1 0-112.6 0-37.5 0-74.9 0-112.4 0-37.5 0-75.1 0-112.6 0-37.5 0-74.9 0-112.4 0-37.5 0-75.1 0-112.6 0-37.5 0-74.9 0-112.4 0-37.5 0-75.1 0-94 0h-18.8z"/>
</svg>